<?xml version="1.0" encoding="iso-8859-1"?>
<!-- Uploaded to: SVG Repo, www.svgrepo.com, Generator: SVG Repo Mixer Tools -->
<svg height="800px" width="800px" version="1.1" id="Layer_1" xmlns="http://www.w3.org/2000/svg" xmlns:xlink="http://www.w3.org/1999/xlink" 
	 viewBox="0 0 512 512" xml:space="preserve">
<path style="fill:#32BEA6;" d="M480,100H32c-17.6,0-32,14.4-32,32v248c0,17.6,14.4,32,32,32h448c17.6,0,32-14.4,32-32V132
	C512,114.4,497.6,100,480,100z"/>
<circle cx="96" cy="256" r="20"/>
<circle cx="416" cy="256" r="20"/>
<path d="M256,152c-57.4,0-104,46.6-104,104s46.6,104,104,104s104-46.6,104-104S313.4,152,256,152z"/>
<path style="fill:#FFFFFF;" d="M252.7,287.6v-30.8c-9.6-2.7-16.7-6.9-21.1-12.5c-4.5-5.6-6.7-12.3-6.7-20.3s2.5-14.8,7.6-20.3
	s11.8-8.6,20.3-9.4V187h10.7v7.3c7.8,0.9,14,3.6,18.6,8s7.6,10.3,8.8,17.6l-18.6,2.4c-1.1-5.8-4.1-9.7-8.8-11.8v28.8
	c11.8,3.2,19.8,7.3,24,12.4c4.3,5.1,6.4,11.6,6.4,19.5c0,8.9-2.7,16.4-8,22.4s-12.8,9.8-22.4,11.2v13.7h-10.7v-13.4
	c-8.5-1-15.4-4.2-20.7-9.5s-8.7-12.8-10.1-22.4l19.2-2c0.8,3.9,2.3,7.3,4.4,10.1S250,286.3,252.7,287.6z M252.7,210.4
	c-2.9,1-5.2,2.7-6.9,5c-1.7,2.4-2.6,5-2.6,7.8c0,2.6,0.8,5,2.3,7.2c1.6,2.2,4,4,7.1,5.4L252.7,210.4L252.7,210.4z M263.3,288.6
	c3.7-0.7,6.7-2.4,9-5.1s3.5-5.9,3.5-9.6c0-3.3-1-6.1-2.9-8.5s-5.1-4.2-9.5-5.5L263.3,288.6L263.3,288.6z"/>
<path d="M0,156.5c1.3,0.1,2.7,0.2,4,0.2c27.8,0,50.3-22.5,50.3-50.3c0-2.1-0.1-4.3-0.4-6.3H32c-17.6,0-32,14.4-32,32V156.5z"/>
<path d="M457.7,106.3c0,27.8,22.5,50.3,50.3,50.3c1.3,0,2.7-0.1,4-0.2V132c0-17.6-14.4-32-32-32h-21.9
	C457.8,102.1,457.7,104.2,457.7,106.3z"/>
<path d="M54.3,405.7c0-27.8-22.5-50.3-50.3-50.3c-1.3,0-2.7,0.1-4,0.2V380c0,17.6,14.4,32,32,32h21.9
	C54.2,409.9,54.3,407.8,54.3,405.7z"/>
<path d="M512,355.5c-1.3-0.1-2.7-0.2-4-0.2c-27.8,0-50.3,22.5-50.3,50.3c0,2.1,0.1,4.3,0.4,6.3H480c17.6,0,32-14.4,32-32V355.5z"/>
</svg>